# xmcd CD database file
#
# Track frame offsets:
#	150
#	4150
#	33479
#	69483
#	91462
#	109572
#	124026
#	149050
#	163299
#	185641
#	207460
#	227044
#	243166
#	258875
#	277174
#
# Disc length: 3939 seconds
#
# Revision: 1
# Processed by: cddbd v1.5.1PL0 Copyright (c) Steve Scherf et al.
# Submitted via: CDex 1.51
#
DISCID=de0f610f
DTITLE=Point Blank - Eight Blue Balls
DYEAR=2003
DGENRE=Blues
TTITLE0=By The Way (You Look Tonight)
TTITLE1=Johnny Passed Away
TTITLE2=A Cross To Bear
TTITLE3=Blue Ball
TTITLE4=Some Other Place
TTITLE5=Peace Of Mind
TTITLE6=Lazy Mama
TTITLE7=You Are Natural
TTITLE8=The Mirror
TTITLE9=It's All Right
TTITLE10=You Play
TTITLE11=A House Full Of Blues
TTITLE12=By The Way (You Look Tonight)
TTITLE13=You Give Me A Reason - Bonus Track 1
TTITLE14=Up and Down - Bonus Track 2
EXTD=YEAR: 2003
EXTT0=
EXTT1=
EXTT2=
EXTT3=
EXTT4=
EXTT5=
EXTT6=
EXTT7=
EXTT8=
EXTT9=
EXTT10=
EXTT11=
EXTT12=
EXTT13=
EXTT14=
PLAYORDER=
